<svg xmlns="http://www.w3.org/2000/svg" xmlns:xlink="http://www.w3.org/1999/xlink" contentStyleType="text/css" height="1631px" preserveAspectRatio="none" style="width:736px;height:1631px;background:#FFFFFF;" version="1.1" viewBox="0 0 736 1631" width="736px" zoomAndPan="magnify"><defs/><g><!--cluster Railway Logistics System--><g id="cluster_Railway Logistics System"><rect fill="none" height="1618" rx="2.5" ry="2.5" style="stroke:#181818;stroke-width:1.0;" width="515" x="215.77" y="7"/><text fill="#000000" font-family="sans-serif" font-size="14" font-weight="bold" lengthAdjust="spacing" textLength="180.6055" x="382.9673" y="22.5352">Railway Logistics System</text></g><g id="elem_USBD01"><ellipse cx="473.272" cy="520.0004" fill="#F1F1F1" rx="159.252" ry="34.2504" style="stroke:#181818;stroke-width:0.5;"/><text fill="#000000" font-family="sans-serif" font-size="14" lengthAdjust="spacing" textLength="289.4336" x="328.5552" y="523.2914">USBD01: Create Data Dictionary / Glossary</text></g><g id="elem_USBD02"><ellipse cx="473.2726" cy="413.9985" fill="#F1F1F1" rx="173.4926" ry="37.0985" style="stroke:#181818;stroke-width:0.5;"/><text fill="#000000" font-family="sans-serif" font-size="14" lengthAdjust="spacing" textLength="318.8691" x="313.8381" y="417.2895">USBD02: Design Logical Relational Model (ERD)</text></g><g id="elem_USBD03"><ellipse cx="473.275" cy="301.997" fill="#F1F1F1" rx="187.285" ry="39.857" style="stroke:#181818;stroke-width:0.5;"/><text fill="#000000" font-family="sans-serif" font-size="14" lengthAdjust="spacing" textLength="347.2314" x="299.6593" y="305.288">USBD03: Instantiate Relational Model with SQL DDL</text></g><g id="elem_USBD04"><ellipse cx="473.2739" cy="186.0008" fill="#F1F1F1" rx="194.0039" ry="41.2008" style="stroke:#181818;stroke-width:0.5;"/><text fill="#000000" font-family="sans-serif" font-size="14" lengthAdjust="spacing" textLength="361.0059" x="292.771" y="189.2918">USBD04: Insert Provided Data Into The New Database</text></g><g id="elem_USLP01"><ellipse cx="473.2738" cy="76.0048" fill="#F1F1F1" rx="157.9238" ry="33.9848" style="stroke:#181818;stroke-width:0.5;"/><text fill="#000000" font-family="sans-serif" font-size="14" lengthAdjust="spacing" textLength="286.6787" x="329.9345" y="79.2958">USLP01: Create Conceptual Domain Model</text></g><g id="elem_USBD05"><ellipse cx="473.2668" cy="735.9954" fill="#F1F1F1" rx="211.9768" ry="44.7954" style="stroke:#181818;stroke-width:0.5;"/><text fill="#000000" font-family="sans-serif" font-size="14" lengthAdjust="spacing" textLength="397.7422" x="274.3957" y="739.2864">USBD05: List All Line Segments Connecting Two Endpoints</text></g><g id="elem_USBD10"><ellipse cx="473.2722" cy="623.0004" fill="#F1F1F1" rx="154.6022" ry="33.3204" style="stroke:#181818;stroke-width:0.5;"/><text fill="#000000" font-family="sans-serif" font-size="14" lengthAdjust="spacing" textLength="279.7813" x="333.3816" y="626.2915">USBD10: List All Wagons Of A Given Type</text></g><g id="elem_USBD16"><ellipse cx="473.2674" cy="941.9995" fill="#F1F1F1" rx="241.4974" ry="50.6995" style="stroke:#181818;stroke-width:0.5;"/><text fill="#000000" font-family="sans-serif" font-size="14" lengthAdjust="spacing" textLength="457.8164" x="244.3592" y="945.2905">USBD16: Get Minimum Length Of Double-Track Segments In A Line</text></g><g id="elem_USEI03"><ellipse cx="473.2741" cy="835.9968" fill="#F1F1F1" rx="91.1341" ry="20.6268" style="stroke:#181818;stroke-width:0.5;"/><text fill="#000000" font-family="sans-serif" font-size="14" lengthAdjust="spacing" textLength="143.8008" x="401.3737" y="839.2878">USEI03: Picking Plans</text></g><g id="elem_USEI01"><ellipse cx="473.267" cy="1069.0014" fill="#F1F1F1" rx="193.807" ry="41.1614" style="stroke:#181818;stroke-width:0.5;"/><text fill="#000000" font-family="sans-serif" font-size="14" lengthAdjust="spacing" textLength="360.6025" x="292.9657" y="1072.2924">USEI01: Wagons Unloading (Inventory replenishment)</text></g><g id="elem_USEI02"><ellipse cx="473.2713" cy="1175.0003" fill="#F1F1F1" rx="139.0013" ry="30.2003" style="stroke:#181818;stroke-width:0.5;"/><text fill="#000000" font-family="sans-serif" font-size="14" lengthAdjust="spacing" textLength="247.208" x="349.6673" y="1178.2913">USEI02: Order Eligibility &amp; Allocation</text></g><g id="elem_USEI04"><ellipse cx="473.2655" cy="1266.0031" fill="#F1F1F1" rx="116.1655" ry="25.6331" style="stroke:#181818;stroke-width:0.5;"/><text fill="#000000" font-family="sans-serif" font-size="14" lengthAdjust="spacing" textLength="198.7822" x="373.8744" y="1269.2941">USEI04: Pick Path Sequencing</text></g><g id="elem_USEI05"><ellipse cx="473.2725" cy="1352.9965" fill="#F1F1F1" rx="117.3825" ry="25.8765" style="stroke:#181818;stroke-width:0.5;"/><text fill="#000000" font-family="sans-serif" font-size="14" lengthAdjust="spacing" textLength="201.3936" x="372.5757" y="1356.2875">USEI05: Returns &amp; Quarantine</text></g><g id="elem_USLP02"><ellipse cx="473.2683" cy="1459.9977" fill="#F1F1F1" rx="219.0383" ry="46.2077" style="stroke:#181818;stroke-width:0.5;"/><text fill="#000000" font-family="sans-serif" font-size="14" lengthAdjust="spacing" textLength="412.1387" x="267.199" y="1463.2887">USLP02: Implement Text-Based Interface for Cargo Handling</text></g><g id="elem_USLP03"><ellipse cx="473.2701" cy="1574.996" fill="#F1F1F1" rx="159.4301" ry="34.286" style="stroke:#181818;stroke-width:0.5;"/><text fill="#000000" font-family="sans-serif" font-size="14" lengthAdjust="spacing" textLength="289.8027" x="328.3687" y="1578.287">USLP03: Estimated Travel Time Calculation</text></g><!--entity PO--><g id="elem_PO"><ellipse cx="88.8816" cy="272.26" fill="#F1F1F1" rx="8" ry="8" style="stroke:#181818;stroke-width:0.5;"/><path d="M88.8816,280.26 L88.8816,307.26 M75.8816,288.26 L101.8816,288.26 M88.8816,307.26 L75.8816,322.26 M88.8816,307.26 L101.8816,322.26 " fill="none" style="stroke:#181818;stroke-width:0.5;"/><text fill="#000000" font-family="sans-serif" font-size="14" lengthAdjust="spacing" textLength="100.2832" x="38.74" y="337.2952">Product Owner</text></g><!--entity Planner--><g id="elem_Planner"><ellipse cx="88.8809" cy="756.26" fill="#F1F1F1" rx="8" ry="8" style="stroke:#181818;stroke-width:0.5;"/><path d="M88.8809,764.26 L88.8809,791.26 M75.8809,772.26 L101.8809,772.26 M88.8809,791.26 L75.8809,806.26 M88.8809,791.26 L101.8809,806.26 " fill="none" style="stroke:#181818;stroke-width:0.5;"/><text fill="#000000" font-family="sans-serif" font-size="14" lengthAdjust="spacing" textLength="50.4219" x="63.67" y="821.2952">Planner</text></g><!--entity Operator--><g id="elem_Operator"><ellipse cx="88.8831" cy="1002.26" fill="#F1F1F1" rx="8" ry="8" style="stroke:#181818;stroke-width:0.5;"/><path d="M88.8831,1010.26 L88.8831,1037.26 M75.8831,1018.26 L101.8831,1018.26 M88.8831,1037.26 L75.8831,1052.26 M88.8831,1037.26 L101.8831,1052.26 " fill="none" style="stroke:#181818;stroke-width:0.5;"/><text fill="#000000" font-family="sans-serif" font-size="14" lengthAdjust="spacing" textLength="124.9063" x="26.43" y="1067.2952">Terminal Operator</text></g><!--entity Warehouse--><g id="elem_Warehouse"><ellipse cx="88.8905" cy="1113.26" fill="#F1F1F1" rx="8" ry="8" style="stroke:#181818;stroke-width:0.5;"/><path d="M88.8905,1121.26 L88.8905,1148.26 M75.8905,1129.26 L101.8905,1129.26 M88.8905,1148.26 L75.8905,1163.26 M88.8905,1148.26 L101.8905,1163.26 " fill="none" style="stroke:#181818;stroke-width:0.5;"/><text fill="#000000" font-family="sans-serif" font-size="14" lengthAdjust="spacing" textLength="129.001" x="24.39" y="1178.2952">Warehouse Planner</text></g><!--entity Picker--><g id="elem_Picker"><ellipse cx="88.8835" cy="1224.26" fill="#F1F1F1" rx="8" ry="8" style="stroke:#181818;stroke-width:0.5;"/><path d="M88.8835,1232.26 L88.8835,1259.26 M75.8835,1240.26 L101.8835,1240.26 M88.8835,1259.26 L75.8835,1274.26 M88.8835,1259.26 L101.8835,1274.26 " fill="none" style="stroke:#181818;stroke-width:0.5;"/><text fill="#000000" font-family="sans-serif" font-size="14" lengthAdjust="spacing" textLength="40.667" x="68.55" y="1289.2952">Picker</text></g><!--entity Quality--><g id="elem_Quality"><ellipse cx="88.8809" cy="1335.26" fill="#F1F1F1" rx="8" ry="8" style="stroke:#181818;stroke-width:0.5;"/><path d="M88.8809,1343.26 L88.8809,1370.26 M75.8809,1351.26 L101.8809,1351.26 M88.8809,1370.26 L75.8809,1385.26 M88.8809,1370.26 L101.8809,1385.26 " fill="none" style="stroke:#181818;stroke-width:0.5;"/><text fill="#000000" font-family="sans-serif" font-size="14" lengthAdjust="spacing" textLength="112.8818" x="32.44" y="1400.2952">Quality Operator</text></g><!--entity StorageManager--><g id="elem_StorageManager"><ellipse cx="88.8857" cy="1446.26" fill="#F1F1F1" rx="8" ry="8" style="stroke:#181818;stroke-width:0.5;"/><path d="M88.8857,1454.26 L88.8857,1481.26 M75.8857,1462.26 L101.8857,1462.26 M88.8857,1481.26 L75.8857,1496.26 M88.8857,1481.26 L101.8857,1496.26 " fill="none" style="stroke:#181818;stroke-width:0.5;"/><text fill="#000000" font-family="sans-serif" font-size="14" lengthAdjust="spacing" textLength="165.7715" x="6" y="1511.2952">Station Storage Manager</text></g><!--entity Dispatcher--><g id="elem_Dispatcher"><ellipse cx="88.8859" cy="1557.26" fill="#F1F1F1" rx="8" ry="8" style="stroke:#181818;stroke-width:0.5;"/><path d="M88.8859,1565.26 L88.8859,1592.26 M75.8859,1573.26 L101.8859,1573.26 M88.8859,1592.26 L75.8859,1607.26 M88.8859,1592.26 L101.8859,1607.26 " fill="none" style="stroke:#181818;stroke-width:0.5;"/><text fill="#000000" font-family="sans-serif" font-size="14" lengthAdjust="spacing" textLength="121.0918" x="28.34" y="1622.2952">Traffic Dispatcher</text></g><!--link PO to USBD01--><g id="link_PO_USBD01"><path d="M106.36,340.4 C125.09,379.22 159.47,437.82 207.77,469 C240.87,490.37 274.9421,502.0458 313.6621,509.6358 " fill="none" id="PO-to-USBD01" style="stroke:#181818;stroke-width:1.0;"/><polygon fill="#181818" points="319.55,510.79,311.4875,505.1334,314.6434,509.8282,309.9486,512.984,319.55,510.79" style="stroke:#181818;stroke-width:1.0;"/></g><!--link PO to USBD02--><g id="link_PO_USBD02"><path d="M139.51,329.35 C160.14,339.82 184.63,351.13 207.77,359 C247.74,372.59 286.4102,382.2248 327.3902,390.5548 " fill="none" id="PO-to-USBD02" style="stroke:#181818;stroke-width:1.0;"/><polygon fill="#181818" points="333.27,391.75,325.2471,386.0374,328.3702,390.754,323.6536,393.8771,333.27,391.75" style="stroke:#181818;stroke-width:1.0;"/></g><!--link PO to USBD03--><g id="link_PO_USBD03"><path d="M139.48,302 C177.27,302 225.85,302 279.91,302 " fill="none" id="PO-to-USBD03" style="stroke:#181818;stroke-width:1.0;"/><polygon fill="#181818" points="285.91,302,276.91,298,280.91,302,276.91,306,285.91,302" style="stroke:#181818;stroke-width:1.0;"/></g><!--link PO to USBD04--><g id="link_PO_USBD04"><path d="M139.28,274.97 C159.98,264.48 184.58,253.07 207.77,245 C244.87,232.09 280.0562,222.6366 318.5162,213.9866 " fill="none" id="PO-to-USBD04" style="stroke:#181818;stroke-width:1.0;"/><polygon fill="#181818" points="324.37,212.67,314.7116,210.7423,319.4919,213.7671,316.4671,218.5474,324.37,212.67" style="stroke:#181818;stroke-width:1.0;"/></g><!--link PO to USLP01--><g id="link_PO_USLP01"><path d="M105.2,263.28 C123.37,222.64 157.66,160.14 207.77,127 C240.83,105.14 275.1003,93.3053 314.0303,85.7353 " fill="none" id="PO-to-USLP01" style="stroke:#181818;stroke-width:1.0;"/><polygon fill="#181818" points="319.92,84.59,310.322,82.3814,315.0119,85.5444,311.849,90.2343,319.92,84.59" style="stroke:#181818;stroke-width:1.0;"/></g><!--link Planner to USBD05--><g id="link_Planner_USBD05"><path d="M114.39,782.8 C150.82,778.03 216.5206,769.4377 286.2106,760.3277 " fill="none" id="Planner-to-USBD05" style="stroke:#181818;stroke-width:1.0;"/><polygon fill="#181818" points="292.16,759.55,282.7174,756.7503,287.2022,760.1981,283.7544,764.6828,292.16,759.55" style="stroke:#181818;stroke-width:1.0;"/></g><!--link Planner to USBD10--><g id="link_Planner_USBD10"><path d="M114.41,754.26 C136.12,728.49 170.12,693.37 207.77,674 C244.89,654.91 282.3693,644.0169 323.1393,636.5069 " fill="none" id="Planner-to-USBD10" style="stroke:#181818;stroke-width:1.0;"/><polygon fill="#181818" points="329.04,635.42,319.4643,633.1166,324.1227,636.3258,320.9135,640.9842,329.04,635.42" style="stroke:#181818;stroke-width:1.0;"/></g><!--link Planner to USBD16--><g id="link_Planner_USBD16"><path d="M114.22,808.69 C136.84,828.62 172.3,857.02 207.77,874 C235.57,887.31 260.5424,896.5519 290.9324,905.4619 " fill="none" id="Planner-to-USBD16" style="stroke:#181818;stroke-width:1.0;"/><polygon fill="#181818" points="296.69,907.15,289.1789,900.7795,291.892,905.7433,286.9282,908.4563,296.69,907.15" style="stroke:#181818;stroke-width:1.0;"/></g><!--link Planner to USEI03--><g id="link_Planner_USEI03"><path d="M114.39,789.2 C169.61,796.42 299.8307,813.4519 387.3807,824.9019 " fill="none" id="Planner-to-USEI03" style="stroke:#181818;stroke-width:1.0;"/><polygon fill="#181818" points="393.33,825.68,384.9247,820.5467,388.3722,825.0316,383.8873,828.4791,393.33,825.68" style="stroke:#181818;stroke-width:1.0;"/></g><!--link Operator to USEI01--><g id="link_Operator_USEI01"><path d="M151.75,1037.99 C191.17,1041.8 238.4279,1046.3718 290.1779,1051.3818 " fill="none" id="Operator-to-USEI01" style="stroke:#181818;stroke-width:1.0;"/><polygon fill="#181818" points="296.15,1051.96,287.5773,1047.1114,291.1733,1051.4782,286.8064,1055.0741,296.15,1051.96" style="stroke:#181818;stroke-width:1.0;"/></g><!--link Warehouse to USEI02--><g id="link_Warehouse_USEI02"><path d="M153.46,1148.32 C204.96,1152.63 273.2109,1158.3392 337.0909,1163.6892 " fill="none" id="Warehouse-to-USEI02" style="stroke:#181818;stroke-width:1.0;"/><polygon fill="#181818" points="343.07,1164.19,334.4352,1159.4528,338.0874,1163.7727,333.7676,1167.4249,343.07,1164.19" style="stroke:#181818;stroke-width:1.0;"/></g><!--link Picker to USEI04--><g id="link_Picker_USEI04"><path d="M109.64,1254.62 C154.98,1256.04 263.423,1259.4412 351.723,1262.2212 " fill="none" id="Picker-to-USEI04" style="stroke:#181818;stroke-width:1.0;"/><polygon fill="#181818" points="357.72,1262.41,348.8503,1258.1288,352.7225,1262.2527,348.5986,1266.1248,357.72,1262.41" style="stroke:#181818;stroke-width:1.0;"/></g><!--link Quality to USEI05--><g id="link_Quality_USEI05"><path d="M145.49,1363.26 C200.59,1361.53 280.643,1359.0186 350.613,1356.8186 " fill="none" id="Quality-to-USEI05" style="stroke:#181818;stroke-width:1.0;"/><polygon fill="#181818" points="356.61,1356.63,347.4887,1352.9148,351.6125,1356.7871,347.7402,1360.9109,356.61,1356.63" style="stroke:#181818;stroke-width:1.0;"/></g><!--link StorageManager to USLP02--><g id="link_StorageManager_USLP02"><path d="M171.92,1472.57 C197.7,1471.49 221.4753,1470.491 252.0453,1469.211 " fill="none" id="StorageManager-to-USLP02" style="stroke:#181818;stroke-width:1.0;"/><polygon fill="#181818" points="258.04,1468.96,248.8805,1465.34,253.0444,1469.1692,249.2152,1473.333,258.04,1468.96" style="stroke:#181818;stroke-width:1.0;"/></g><!--link Dispatcher to USLP03--><g id="link_Dispatcher_USLP03"><path d="M149.63,1585.12 C194.06,1583.73 250.8429,1581.948 309.2229,1580.118 " fill="none" id="Dispatcher-to-USLP03" style="stroke:#181818;stroke-width:1.0;"/><polygon fill="#181818" points="315.22,1579.93,306.0991,1576.2139,310.2225,1580.0867,306.3497,1584.21,315.22,1579.93" style="stroke:#181818;stroke-width:1.0;"/></g><!--SRC=[VLLBSzem4BxhL-nmIE70D06I0uVEa9Ycp910W4pEYhqO3R94PH7ATFhVk_931ko42zBkwjlNjsk9QmjMWn7nna8a38PMQCNIhL0xRdW2EnvkUOnBUvG8JirLB94n7bfje3KtEjg75cO7XQO5F8NvpEiaLrwQdqlL2aqY59Smsw7X9CgCoajfzSODRlG-HJY5ybBlHuJRqarsB1KlUow5FPuxAOIbpT9obp4iwKPvmXDNz9UR5h92v6CtVBqM8GGYtN4RRWhZwigOhnEq5bp80p_2LCSYjI8ar6DgCMd1NmRq-mPd9Snab5l8AUlMw_8-kBuPmeD1RX42RZdvoLh4pH6-mwFKQKh7B8BSkW6XDuG0Kn6hB8gGohv0cQLDnoSTeOJsU15qAfHU0qf_21ELKbvMk61g40TXDx1ycK8GJ2kaVWFI84D2Ortk7oB2A4zjeeYAgmt2CnuooJkzgQ06x19hEZ-fpeDM8UuijHS2dN2XyhYAzywKbHNFsGJj-o0O1Ps626-7CALsmKXAEYY49SO9AfiwByeDYOfXTT0mLj5E2r9KOTxMyMwkJ_3UUAmLaNqD8tWK7wXWTTnLQTvSDxo_6y8ZMdWIIYJx1AQeOYesGGHw_ownIvmCjrMG4qNOBkuAzQvMlF74jTHDZ4l6rQHCmcdAMjKcbQYod3p_x3J0KI-Av5wLr3nokEs9eXJftP6snqwY4kd61TcfVFc-rERz2r_4wPc9o6GiHIpUHJReLwx0EinuMU7tVD-pxV05w22l1yovepB-tgCAAOaAQb12NQwMBq29ImkqUqDbkNBlZ9iWtnfdK81-iegWFHtD5_rE0_cf29E4YkeAIftwOxltf8pS8A5Pyn1XJQ4zS1Dh-CLL9AjatEl2RtsXbIwRV19dnhJ84Xgv2EZf1ut-IYGqVro6UtbQUsVD_Z5skUFcC-XsVvJxwlJMExlrpsw3wfOFinzaLjB5szxMH3HMDT7TXIZdVGFdcM-pDypyrmZBAectx6MHvX-cWe5UDt2wIownKk3DRftP9_HWvr-fgaAPttflsKcRlMsV_GS0]--></g></svg>