<?xml version="1.0" encoding="UTF-8" standalone="no"?>
<!DOCTYPE svg PUBLIC "-//W3C//DTD SVG 1.1//EN"
 "http://www.w3.org/Graphics/SVG/1.1/DTD/svg11.dtd">
<!-- Generated by graphviz version 14.0.5 (20251129.0259)
 -->
<!-- Title: railway Pages: 1 -->
<svg width="4825pt" height="3092pt"
 viewBox="0.00 0.00 4825.00 3092.00" xmlns="http://www.w3.org/2000/svg" xmlns:xlink="http://www.w3.org/1999/xlink">
<g id="graph0" class="graph" transform="scale(1 1) rotate(0) translate(4 3087.99)">
<title>railway</title>
<polygon fill="white" stroke="none" points="-4,4 -4,-3087.99 4820.79,-3087.99 4820.79,4 -4,4"/>
<!-- 447 -->
<g id="node1" class="node">
<title>447</title>
<ellipse fill="none" stroke="black" cx="73.36" cy="-3010.64" rx="73.36" ry="73.36"/>
<text xml:space="preserve" text-anchor="middle" x="73.36" y="-3005.59" font-family="Times New Roman,serif" font-size="14.00">GENTBRUGGE</text>
</g>
<!-- 822 -->
<g id="node2" class="node">
<title>822</title>
<ellipse fill="none" stroke="black" cx="138.01" cy="-2860.59" rx="66.71" ry="66.71"/>
<text xml:space="preserve" text-anchor="middle" x="138.01" y="-2855.54" font-family="Times New Roman,serif" font-size="14.00">MERELBEKE</text>
</g>
<!-- 447&#45;&gt;822 -->
<g id="edge2" class="edge">
<title>447&#45;&gt;822</title>
<path fill="none" stroke="red" stroke-width="3" d="M102.47,-2943.07C103.6,-2940.45 104.74,-2937.81 105.87,-2935.17"/>
<polygon fill="red" stroke="red" stroke-width="3" points="108.99,-2936.79 109.73,-2926.22 102.56,-2934.02 108.99,-2936.79"/>
<text xml:space="preserve" text-anchor="middle" x="89.92" y="-2925.82" font-family="Times New Roman,serif" font-size="14.00" fill="red">&#45;4.58</text>
</g>
<!-- 455 -->
<g id="node3" class="node">
<title>455</title>
<ellipse fill="none" stroke="black" cx="1010.61" cy="-2173.59" rx="56.47" ry="56.47"/>
<text xml:space="preserve" text-anchor="middle" x="1010.61" y="-2168.54" font-family="Times New Roman,serif" font-size="14.00">GENT&#45;ST&#45;P</text>
</g>
<!-- 822&#45;&gt;455 -->
<g id="edge3" class="edge">
<title>822&#45;&gt;455</title>
<path fill="none" stroke="black" stroke-width="3" d="M190.63,-2819.16C345.02,-2697.6 795.9,-2342.63 954.57,-2217.7"/>
<polygon fill="black" stroke="black" stroke-width="3" points="956.67,-2220.51 962.36,-2211.57 952.34,-2215.01 956.67,-2220.51"/>
<text xml:space="preserve" text-anchor="middle" x="560.6" y="-2521.63" font-family="Times New Roman,serif" font-size="14.00">9.08</text>
</g>
<!-- 2089 -->
<g id="node4" class="node">
<title>2089</title>
<ellipse fill="none" stroke="black" cx="4744.46" cy="-72.34" rx="72.34" ry="72.34"/>
<text xml:space="preserve" text-anchor="middle" x="4744.46" y="-67.29" font-family="Times New Roman,serif" font-size="14.00">ANDERLECHT</text>
</g>
<!-- 455&#45;&gt;2089 -->
<g id="edge1" class="edge">
<title>455&#45;&gt;2089</title>
<path fill="none" stroke="black" stroke-width="3" d="M1060.22,-2145.67C1461.83,-1919.66 4178.56,-390.8 4668.74,-114.95"/>
<polygon fill="black" stroke="black" stroke-width="3" points="4670.3,-118.09 4677.3,-110.13 4666.86,-111.99 4670.3,-118.09"/>
<text xml:space="preserve" text-anchor="middle" x="2849.11" y="-1133.51" font-family="Times New Roman,serif" font-size="14.00">27.04</text>
</g>
</g>
</svg>
