<?xml version="1.0" encoding="UTF-8" standalone="no"?>
<!DOCTYPE svg PUBLIC "-//W3C//DTD SVG 1.1//EN"
 "http://www.w3.org/Graphics/SVG/1.1/DTD/svg11.dtd">
<!-- Generated by graphviz version 14.0.5 (20251129.0259)
 -->
<!-- Title: railway Pages: 1 -->
<svg width="550pt" height="315pt"
 viewBox="0.00 0.00 550.00 315.00" xmlns="http://www.w3.org/2000/svg" xmlns:xlink="http://www.w3.org/1999/xlink">
<g id="graph0" class="graph" transform="scale(1 1) rotate(0) translate(4 311.21)">
<title>railway</title>
<polygon fill="white" stroke="none" points="-4,4 -4,-311.21 546.39,-311.21 546.39,4 -4,4"/>
<!-- 447&#45;&gt;822 -->
<g id="edge2" class="edge">
<title>447&#45;&gt;822</title>
<path fill="none" stroke="red" stroke-width="2" d="M106.59,-44.54C124.85,-56.57 147.85,-71.73 167.31,-84.55"/>
<polygon fill="red" stroke="red" stroke-width="2" points="165.51,-86.72 173.73,-88.78 168.59,-82.04 165.51,-86.72"/>
<text xml:space="preserve" text-anchor="middle" x="132.04" y="-69.44" font-family="Times New Roman,serif" font-size="9.00" fill="red">&#45;4.58</text>
</g>
<!-- 822&#45;&gt;455 -->
<g id="edge3" class="edge">
<title>822&#45;&gt;455</title>
<path fill="none" stroke="black" stroke-width="2" d="M255.06,-128.19C270.99,-133.91 288.9,-140.33 305.34,-146.23"/>
<polygon fill="black" stroke="black" stroke-width="2" points="304.04,-148.73 312.51,-148.8 305.93,-143.46 304.04,-148.73"/>
<text xml:space="preserve" text-anchor="middle" x="277.33" y="-140.96" font-family="Times New Roman,serif" font-size="9.00">9.08</text>
</g>
<!-- 455&#45;&gt;2089 -->
<g id="edge1" class="edge">
<title>455&#45;&gt;2089</title>
<path fill="none" stroke="black" stroke-width="2" d="M380.29,-187.97C397.39,-206.43 421.89,-232.89 440.84,-253.35"/>
<polygon fill="black" stroke="black" stroke-width="2" points="438.78,-255.25 446.27,-259.22 442.89,-251.44 438.78,-255.25"/>
<text xml:space="preserve" text-anchor="middle" x="404.24" y="-226.71" font-family="Times New Roman,serif" font-size="9.00">27.04</text>
</g>
<!-- 447 -->
<g id="node1" class="node">
<title>447</title>
<ellipse fill="none" stroke="black" cx="74.25" cy="-23.23" rx="74.25" ry="23.23"/>
<text xml:space="preserve" text-anchor="middle" x="74.25" y="-19.35" font-family="Times New Roman,serif" font-size="10.00">GENTBRUGGE</text>
</g>
<!-- 822 -->
<g id="node2" class="node">
<title>822</title>
<ellipse fill="none" stroke="black" cx="207.84" cy="-111.26" rx="67.88" ry="23.23"/>
<text xml:space="preserve" text-anchor="middle" x="207.84" y="-107.38" font-family="Times New Roman,serif" font-size="10.00">MERELBEKE</text>
</g>
<!-- 455 -->
<g id="node3" class="node">
<title>455</title>
<ellipse fill="none" stroke="black" cx="359.7" cy="-165.72" rx="59.4" ry="23.23"/>
<text xml:space="preserve" text-anchor="middle" x="359.7" y="-161.85" font-family="Times New Roman,serif" font-size="10.00">GENT&#45;ST&#45;P</text>
</g>
<!-- 2089 -->
<g id="node4" class="node">
<title>2089</title>
<ellipse fill="none" stroke="black" cx="469.21" cy="-283.98" rx="73.19" ry="23.23"/>
<text xml:space="preserve" text-anchor="middle" x="469.21" y="-280.11" font-family="Times New Roman,serif" font-size="10.00">ANDERLECHT</text>
</g>
</g>
</svg>
