<svg xmlns="http://www.w3.org/2000/svg" xmlns:xlink="http://www.w3.org/1999/xlink" contentStyleType="text/css" height="504px" preserveAspectRatio="none" style="width:308px;height:504px;background:#FFFFFF;" version="1.1" viewBox="0 0 308 504" width="308px" zoomAndPan="magnify"><title>Authentication Class Diagram</title><defs/><g><text fill="#000000" font-family="sans-serif" font-size="14" font-weight="bold" lengthAdjust="spacing" textLength="215.1475" x="39.9165" y="23.5352">Authentication Class Diagram</text><!--class User--><g id="elem_User"><rect codeLine="5" fill="#F1F1F1" height="196.3945" id="User" rx="2.5" ry="2.5" style="stroke:#181818;stroke-width:0.5;" width="294.9805" x="7" y="301.3983"/><ellipse cx="135.0576" cy="317.3983" fill="#ADD1B2" rx="11" ry="11" style="stroke:#181818;stroke-width:1.0;"/><path d="M138.0308,323.0413 Q137.4497,323.3402 136.8105,323.4896 Q136.1714,323.639 135.4658,323.639 Q132.959,323.639 131.6392,321.9871 Q130.3193,320.3353 130.3193,317.2142 Q130.3193,314.0848 131.6392,312.4329 Q132.959,310.7811 135.4658,310.7811 Q136.1714,310.7811 136.8188,310.9305 Q137.4663,311.0799 138.0308,311.3788 L138.0308,314.1014 Q137.3999,313.5204 136.8064,313.2506 Q136.2129,312.9808 135.582,312.9808 Q134.2373,312.9808 133.5525,314.0475 Q132.8677,315.1141 132.8677,317.2142 Q132.8677,319.306 133.5525,320.3726 Q134.2373,321.4393 135.582,321.4393 Q136.2129,321.4393 136.8064,321.1695 Q137.3999,320.8997 138.0308,320.3187 Z " fill="#000000"/><text fill="#000000" font-family="sans-serif" font-size="14" lengthAdjust="spacing" textLength="30.3652" x="155.5576" y="322.6893">User</text><line style="stroke:#181818;stroke-width:0.5;" x1="8" x2="300.9805" y1="333.3983" y2="333.3983"/><text fill="#000000" font-family="sans-serif" font-size="14" lengthAdjust="spacing" textLength="52.2197" x="13" y="350.9334">-id : int</text><text fill="#000000" font-family="sans-serif" font-size="14" lengthAdjust="spacing" textLength="98.0547" x="13" y="367.4217">-email : String</text><text fill="#000000" font-family="sans-serif" font-size="14" lengthAdjust="spacing" textLength="126.1025" x="13" y="383.91">-password : String</text><text fill="#000000" font-family="sans-serif" font-size="14" lengthAdjust="spacing" textLength="114.8984" x="13" y="400.3983">-active : boolean</text><text fill="#000000" font-family="sans-serif" font-size="14" lengthAdjust="spacing" textLength="193.7236" x="13" y="416.8866">-roleList : ArrayList&lt;String&gt;</text><line style="stroke:#181818;stroke-width:0.5;" x1="8" x2="300.9805" y1="423.8397" y2="423.8397"/><text fill="#000000" font-family="sans-serif" font-size="14" lengthAdjust="spacing" textLength="131.7422" x="13" y="441.3748">+getEmail() : String</text><text fill="#000000" font-family="sans-serif" font-size="14" lengthAdjust="spacing" textLength="230.7471" x="13" y="457.8631">+getRoleList() : ArrayList&lt;String&gt;</text><text fill="#000000" font-family="sans-serif" font-size="14" lengthAdjust="spacing" textLength="140.1436" x="13" y="474.3514">+isActive() : boolean</text><text fill="#000000" font-family="sans-serif" font-size="14" lengthAdjust="spacing" textLength="282.9805" x="13" y="490.8397">+correctPassword(pass : String) : boolean</text></g><!--class UserRepository--><g id="elem_UserRepository"><rect codeLine="17" fill="#F1F1F1" height="179.9063" id="UserRepository" rx="2.5" ry="2.5" style="stroke:#181818;stroke-width:0.5;" width="244.3877" x="32.3" y="44.4883"/><ellipse cx="98.9982" cy="60.4883" fill="#ADD1B2" rx="11" ry="11" style="stroke:#181818;stroke-width:1.0;"/><path d="M101.9714,66.1313 Q101.3903,66.4302 100.7512,66.5796 Q100.112,66.729 99.4064,66.729 Q96.8996,66.729 95.5798,65.0771 Q94.26,63.4253 94.26,60.3042 Q94.26,57.1748 95.5798,55.5229 Q96.8996,53.8711 99.4064,53.8711 Q100.112,53.8711 100.7595,54.0205 Q101.4069,54.1699 101.9714,54.4688 L101.9714,57.1914 Q101.3405,56.6104 100.747,56.3406 Q100.1535,56.0708 99.5227,56.0708 Q98.1779,56.0708 97.4931,57.1375 Q96.8083,58.2041 96.8083,60.3042 Q96.8083,62.396 97.4931,63.4626 Q98.1779,64.5293 99.5227,64.5293 Q100.1535,64.5293 100.747,64.2595 Q101.3405,63.9897 101.9714,63.4087 Z " fill="#000000"/><text fill="#000000" font-family="sans-serif" font-size="14" lengthAdjust="spacing" textLength="102.4912" x="119.4982" y="65.7793">UserRepository</text><line style="stroke:#181818;stroke-width:0.5;" x1="33.3" x2="275.6877" y1="76.4883" y2="76.4883"/><text fill="#000000" font-family="sans-serif" font-size="14" lengthAdjust="spacing" textLength="187.9336" x="38.3" y="94.0234">-users : Map&lt;String, User&gt;</text><line style="stroke:#181818;stroke-width:0.5;" x1="33.3" x2="275.6877" y1="100.9766" y2="100.9766"/><text fill="#000000" font-family="sans-serif" font-size="14" lengthAdjust="spacing" textLength="160.5898" x="38.3" y="118.5117">+add(user : User) : void</text><text fill="#000000" font-family="sans-serif" font-size="14" lengthAdjust="spacing" textLength="232.3877" x="38.3" y="135">+findByEmail(email : String) : User</text><text fill="#000000" font-family="sans-serif" font-size="14" lengthAdjust="spacing" textLength="202.4258" x="38.3" y="151.4883">+remove(email : String) : void</text><text fill="#000000" font-family="sans-serif" font-size="14" lengthAdjust="spacing" textLength="217.6973" x="38.3" y="167.9766">+exists(email : String) : boolean</text><text fill="#000000" font-family="sans-serif" font-size="14" lengthAdjust="spacing" textLength="198.5156" x="38.3" y="184.4648">+findAll() : Collection&lt;User&gt;</text><text fill="#000000" font-family="sans-serif" font-size="14" lengthAdjust="spacing" textLength="94.7051" x="38.3" y="200.9531">+clear() : void</text><text fill="#000000" font-family="sans-serif" font-size="14" lengthAdjust="spacing" textLength="89.8789" x="38.3" y="217.4414">+count() : int</text></g><!--link UserRepository to User--><g id="link_UserRepository_User"><path codeLine="28" d="M154.49,224.5283 C154.49,249.1383 154.49,269.9583 154.49,295.0083 " fill="none" id="UserRepository-to-User" style="stroke:#181818;stroke-width:1.0;"/><polygon fill="#181818" points="154.49,301.0083,158.49,292.0083,154.49,296.0083,150.49,292.0083,154.49,301.0083" style="stroke:#181818;stroke-width:1.0;"/><text fill="#000000" font-family="sans-serif" font-size="13" lengthAdjust="spacing" textLength="56.5386" x="155.49" y="267.9666">manages</text><text fill="#000000" font-family="sans-serif" font-size="13" lengthAdjust="spacing" textLength="8.2202" x="146.1797" y="244.8855">1</text><text fill="#000000" font-family="sans-serif" font-size="13" lengthAdjust="spacing" textLength="6.2651" x="148.2794" y="290.7973">*</text></g><!--SRC=[RLB1JiCm3BttAwAUEaObk4xJf38u8864Dl41NcgAjJIfadHG4F-EtPRHmMx9ytlFVax2dcm37chLWDv3XTlO6LGUTGHR6Kp2aQ0DX534w6dNHhpNpcxf0zLL4Ycof6ZZAzf86Y8vgzR2LhS45MkJf1Uhvu1UVIPAvLIgXI8RvOmraE7hbgrj9KZ3v3VdonCGTAG3ChHppY1OmJoV7YX4HWllePFpSf2ik3wlCDw9UpQRMWcy6PLzvQoMGj5tx1c_FUVQULdFqpXZ9iCUtQVShsdi3JOkK7I-6nRGCYQoHsZ6ffSzhsyDPPa9WUk2YUd1KIcb5xBbJJU4EbtSR6GBosFjUFB_X1yRVEUquGnX4bHQ5MROtTePmw7vPPV7AJKJVJPrrQwrmqRbQJd_d-JfTQhoVANIYtJu2mjLW-LV5v9l]--></g></svg>